<svg width="1043" height="900" viewBox="0 0 1043 900" fill="none" xmlns="http://www.w3.org/2000/svg">
<path d="M337.745 363.544V441.2" stroke="#745BB3" stroke-width="9.31879"/>
<circle cx="337.745" cy="363.544" r="15.5313" fill="#745BB3"/>
<circle cx="337.745" cy="441.2" r="15.5313" fill="#745BB3"/>
<path d="M376.574 402.372V480.029" stroke="#6681F7" stroke-width="9.31879"/>
<circle cx="376.574" cy="402.372" r="15.5313" fill="#6681F7"/>
<circle cx="376.574" cy="480.029" r="15.5313" fill="#6681F7"/>
<path d="M454.23 480.029L376.574 480.029" stroke="#6681F7" stroke-width="9.31879"/>
<circle cx="454.23" cy="480.029" r="15.5313" transform="rotate(90 454.23 480.029)" fill="#6681F7"/>
<circle cx="376.574" cy="480.029" r="15.5313" transform="rotate(90 376.574 480.029)" fill="#6681F7"/>
<circle cx="415.402" cy="441.2" r="15.5313" fill="#65C4A7"/>
<path d="M298.917 402.372V480.029" stroke="#6681F7" stroke-width="9.31879"/>
<circle r="15.5313" transform="matrix(-1 0 0 1 298.917 402.372)" fill="#6681F7"/>
<circle r="15.5313" transform="matrix(-1 0 0 1 298.917 480.029)" fill="#6681F7"/>
<path d="M221.26 480.029L298.917 480.029" stroke="#6681F7" stroke-width="9.31879"/>
<circle r="15.5313" transform="matrix(4.37114e-08 1 1 -4.37114e-08 221.26 480.029)" fill="#6681F7"/>
<circle r="15.5313" transform="matrix(4.37114e-08 1 1 -4.37114e-08 298.917 480.029)" fill="#6681F7"/>
<circle r="15.5313" transform="matrix(-1 0 0 1 260.089 441.2)" fill="#65C4A7"/>
<path d="M493.058 518.857L415.402 518.857" stroke="#745BB3" stroke-width="9.31879"/>
<circle cx="493.058" cy="518.857" r="15.5313" transform="rotate(90 493.058 518.857)" fill="#745BB3"/>
<circle cx="415.402" cy="518.857" r="15.5313" transform="rotate(90 415.402 518.857)" fill="#745BB3"/>
<path d="M337.746 674.17L337.746 596.514" stroke="#745BB3" stroke-width="9.31879"/>
<circle cx="337.746" cy="674.17" r="15.5313" transform="rotate(-180 337.746 674.17)" fill="#745BB3"/>
<circle cx="337.746" cy="596.514" r="15.5313" transform="rotate(-180 337.746 596.514)" fill="#745BB3"/>
<path d="M298.917 635.342L298.917 557.685" stroke="#6681F7" stroke-width="9.31879"/>
<circle cx="298.917" cy="635.342" r="15.5313" transform="rotate(-180 298.917 635.342)" fill="#6681F7"/>
<circle cx="298.917" cy="557.685" r="15.5313" transform="rotate(-180 298.917 557.685)" fill="#6681F7"/>
<path d="M221.261 557.685L298.917 557.685" stroke="#6681F7" stroke-width="9.31879"/>
<circle cx="221.261" cy="557.685" r="15.5313" transform="rotate(-90 221.261 557.685)" fill="#6681F7"/>
<circle cx="298.917" cy="557.685" r="15.5313" transform="rotate(-90 298.917 557.685)" fill="#6681F7"/>
<circle cx="260.089" cy="596.514" r="15.5313" transform="rotate(-180 260.089 596.514)" fill="#65C4A7"/>
<path d="M376.574 635.342L376.574 557.685" stroke="#6681F7" stroke-width="9.31879"/>
<circle r="15.5313" transform="matrix(1 -8.74228e-08 -8.74228e-08 -1 376.574 635.342)" fill="#6681F7"/>
<circle r="15.5313" transform="matrix(1 -8.74228e-08 -8.74228e-08 -1 376.574 557.685)" fill="#6681F7"/>
<path d="M454.231 557.685L376.574 557.685" stroke="#6681F7" stroke-width="9.31879"/>
<circle r="15.5313" transform="matrix(-1.31134e-07 -1 -1 1.31134e-07 454.231 557.685)" fill="#6681F7"/>
<circle r="15.5313" transform="matrix(-1.31134e-07 -1 -1 1.31134e-07 376.574 557.685)" fill="#6681F7"/>
<circle r="15.5313" transform="matrix(1 -8.74228e-08 -8.74228e-08 -1 415.402 596.514)" fill="#65C4A7"/>
<path d="M182.433 518.857L260.089 518.857" stroke="#745BB3" stroke-width="9.31879"/>
<circle cx="182.433" cy="518.857" r="15.5313" transform="rotate(-90 182.433 518.857)" fill="#745BB3"/>
<circle cx="260.089" cy="518.857" r="15.5313" transform="rotate(-90 260.089 518.857)" fill="#745BB3"/>
<path d="M1059.95 712.998L982.295 712.998" stroke="#745BB3" stroke-width="9.31879"/>
<circle cx="982.295" cy="712.998" r="15.5313" transform="rotate(90 982.295 712.998)" fill="#745BB3"/>
<path d="M1021.12 751.827L943.467 751.827" stroke="#6681F7" stroke-width="9.31879"/>
<circle cx="1021.12" cy="751.827" r="15.5313" transform="rotate(90 1021.12 751.827)" fill="#6681F7"/>
<circle cx="943.467" cy="751.827" r="15.5313" transform="rotate(90 943.467 751.827)" fill="#6681F7"/>
<path d="M943.467 829.483L943.467 751.827" stroke="#6681F7" stroke-width="9.31879"/>
<circle cx="943.467" cy="829.483" r="15.5313" transform="rotate(-180 943.467 829.483)" fill="#6681F7"/>
<circle cx="943.467" cy="751.827" r="15.5313" transform="rotate(-180 943.467 751.827)" fill="#6681F7"/>
<circle cx="982.295" cy="790.655" r="15.5313" transform="rotate(90 982.295 790.655)" fill="#65C4A7"/>
<path d="M1021.12 674.17L943.467 674.17" stroke="#6681F7" stroke-width="9.31879"/>
<circle r="15.5313" transform="matrix(4.37114e-08 -1 -1 -4.37114e-08 1021.12 674.17)" fill="#6681F7"/>
<circle r="15.5313" transform="matrix(4.37114e-08 -1 -1 -4.37114e-08 943.467 674.17)" fill="#6681F7"/>
<path d="M943.467 596.514V674.17" stroke="#6681F7" stroke-width="9.31879"/>
<circle r="15.5313" transform="matrix(-1 0 0 1 943.467 596.514)" fill="#6681F7"/>
<circle r="15.5313" transform="matrix(-1 0 0 1 943.467 674.17)" fill="#6681F7"/>
<circle r="15.5313" transform="matrix(4.37114e-08 -1 -1 -4.37114e-08 982.295 635.342)" fill="#65C4A7"/>
<path d="M904.639 868.311L904.639 790.655" stroke="#745BB3" stroke-width="9.31879"/>
<circle cx="904.639" cy="868.311" r="15.5313" transform="rotate(-180 904.639 868.311)" fill="#745BB3"/>
<circle cx="904.639" cy="790.655" r="15.5313" transform="rotate(-180 904.639 790.655)" fill="#745BB3"/>
<path d="M749.325 712.998L826.982 712.998" stroke="#745BB3" stroke-width="9.31879"/>
<circle cx="749.325" cy="712.998" r="15.5313" transform="rotate(-90 749.325 712.998)" fill="#745BB3"/>
<circle cx="826.982" cy="712.998" r="15.5313" transform="rotate(-90 826.982 712.998)" fill="#745BB3"/>
<path d="M788.154 674.17L865.81 674.17" stroke="#6681F7" stroke-width="9.31879"/>
<circle cx="788.154" cy="674.17" r="15.5313" transform="rotate(-90 788.154 674.17)" fill="#6681F7"/>
<circle cx="865.81" cy="674.17" r="15.5313" transform="rotate(-90 865.81 674.17)" fill="#6681F7"/>
<path d="M865.81 596.514L865.81 674.17" stroke="#6681F7" stroke-width="9.31879"/>
<circle cx="865.81" cy="596.514" r="15.5313" fill="#6681F7"/>
<circle cx="865.81" cy="674.17" r="15.5313" fill="#6681F7"/>
<circle cx="826.982" cy="635.342" r="15.5313" transform="rotate(-90 826.982 635.342)" fill="#65C4A7"/>
<path d="M788.154 751.827L865.81 751.827" stroke="#6681F7" stroke-width="9.31879"/>
<circle r="15.5313" transform="matrix(4.37114e-08 1 1 -4.37114e-08 788.154 751.827)" fill="#6681F7"/>
<circle r="15.5313" transform="matrix(4.37114e-08 1 1 -4.37114e-08 865.81 751.827)" fill="#6681F7"/>
<path d="M865.81 829.483L865.81 751.827" stroke="#6681F7" stroke-width="9.31879"/>
<circle r="15.5313" transform="matrix(1 -8.74228e-08 -8.74228e-08 -1 865.81 829.483)" fill="#6681F7"/>
<circle r="15.5313" transform="matrix(1 -8.74228e-08 -8.74228e-08 -1 865.81 751.827)" fill="#6681F7"/>
<circle r="15.5313" transform="matrix(4.37114e-08 1 1 -4.37114e-08 826.982 790.655)" fill="#65C4A7"/>
<path d="M904.638 557.685L904.638 635.342" stroke="#745BB3" stroke-width="9.31879"/>
<circle cx="904.638" cy="557.685" r="15.5313" fill="#745BB3"/>
<circle cx="904.638" cy="635.342" r="15.5313" fill="#745BB3"/>
<path d="M524.122 557.685V635.342" stroke="#745BB3" stroke-width="9.31879"/>
<circle cx="524.122" cy="557.685" r="15.5313" fill="#745BB3"/>
<circle cx="524.122" cy="635.342" r="15.5313" fill="#745BB3"/>
<path d="M562.95 596.513V674.17" stroke="#6681F7" stroke-width="9.31879"/>
<circle cx="562.95" cy="596.513" r="15.5313" fill="#6681F7"/>
<circle cx="562.95" cy="674.17" r="15.5313" fill="#6681F7"/>
<path d="M640.607 674.17L562.95 674.17" stroke="#6681F7" stroke-width="9.31879"/>
<circle cx="640.607" cy="674.17" r="15.5313" transform="rotate(90 640.607 674.17)" fill="#6681F7"/>
<circle cx="562.95" cy="674.17" r="15.5313" transform="rotate(90 562.95 674.17)" fill="#6681F7"/>
<circle cx="601.778" cy="635.342" r="15.5313" fill="#65C4A7"/>
<path d="M485.293 596.513V674.17" stroke="#6681F7" stroke-width="9.31879"/>
<circle r="15.5313" transform="matrix(-1 0 0 1 485.293 596.513)" fill="#6681F7"/>
<circle r="15.5313" transform="matrix(-1 0 0 1 485.293 674.17)" fill="#6681F7"/>
<path d="M407.637 674.17L485.293 674.17" stroke="#6681F7" stroke-width="9.31879"/>
<circle r="15.5313" transform="matrix(4.37114e-08 1 1 -4.37114e-08 407.637 674.17)" fill="#6681F7"/>
<circle r="15.5313" transform="matrix(4.37114e-08 1 1 -4.37114e-08 485.293 674.17)" fill="#6681F7"/>
<circle r="15.5313" transform="matrix(-1 0 0 1 446.465 635.342)" fill="#65C4A7"/>
<path d="M679.435 712.998L601.778 712.998" stroke="#745BB3" stroke-width="9.31879"/>
<circle cx="679.435" cy="712.998" r="15.5313" transform="rotate(90 679.435 712.998)" fill="#745BB3"/>
<circle cx="601.778" cy="712.998" r="15.5313" transform="rotate(90 601.778 712.998)" fill="#745BB3"/>
<path d="M524.121 868.311L524.121 790.655" stroke="#745BB3" stroke-width="9.31879"/>
<circle cx="524.121" cy="868.311" r="15.5313" transform="rotate(-180 524.121 868.311)" fill="#745BB3"/>
<circle cx="524.121" cy="790.655" r="15.5313" transform="rotate(-180 524.121 790.655)" fill="#745BB3"/>
<path d="M485.293 829.483L485.293 751.827" stroke="#6681F7" stroke-width="9.31879"/>
<circle cx="485.293" cy="829.483" r="15.5313" transform="rotate(-180 485.293 829.483)" fill="#6681F7"/>
<circle cx="485.293" cy="751.827" r="15.5313" transform="rotate(-180 485.293 751.827)" fill="#6681F7"/>
<path d="M407.636 751.827L485.293 751.827" stroke="#6681F7" stroke-width="9.31879"/>
<circle cx="407.636" cy="751.827" r="15.5313" transform="rotate(-90 407.636 751.827)" fill="#6681F7"/>
<circle cx="485.293" cy="751.827" r="15.5313" transform="rotate(-90 485.293 751.827)" fill="#6681F7"/>
<circle cx="446.465" cy="790.655" r="15.5313" transform="rotate(-180 446.465 790.655)" fill="#65C4A7"/>
<path d="M562.949 829.483L562.949 751.827" stroke="#6681F7" stroke-width="9.31879"/>
<circle r="15.5313" transform="matrix(1 -8.74228e-08 -8.74228e-08 -1 562.949 829.483)" fill="#6681F7"/>
<circle r="15.5313" transform="matrix(1 -8.74228e-08 -8.74228e-08 -1 562.949 751.827)" fill="#6681F7"/>
<path d="M640.606 751.827L562.949 751.827" stroke="#6681F7" stroke-width="9.31879"/>
<circle r="15.5313" transform="matrix(-1.31134e-07 -1 -1 1.31134e-07 640.606 751.827)" fill="#6681F7"/>
<circle r="15.5313" transform="matrix(-1.31134e-07 -1 -1 1.31134e-07 562.949 751.827)" fill="#6681F7"/>
<circle r="15.5313" transform="matrix(1 -8.74228e-08 -8.74228e-08 -1 601.778 790.655)" fill="#65C4A7"/>
<path d="M368.808 712.998L446.465 712.998" stroke="#745BB3" stroke-width="9.31879"/>
<circle cx="368.808" cy="712.998" r="15.5313" transform="rotate(-90 368.808 712.998)" fill="#745BB3"/>
<circle cx="446.465" cy="712.998" r="15.5313" transform="rotate(-90 446.465 712.998)" fill="#745BB3"/>
<path d="M865.81 899.374L788.154 899.374" stroke="#745BB3" stroke-width="9.31879"/>
<circle cx="865.81" cy="899.374" r="15.5313" transform="rotate(90 865.81 899.374)" fill="#745BB3"/>
<circle cx="788.154" cy="899.374" r="15.5313" transform="rotate(90 788.154 899.374)" fill="#745BB3"/>
<path d="M826.982 860.546L749.326 860.546" stroke="#6681F7" stroke-width="9.31879"/>
<circle r="15.5313" transform="matrix(4.37114e-08 -1 -1 -4.37114e-08 826.982 860.546)" fill="#6681F7"/>
<circle r="15.5313" transform="matrix(4.37114e-08 -1 -1 -4.37114e-08 749.326 860.546)" fill="#6681F7"/>
<path d="M749.326 782.889V860.546" stroke="#6681F7" stroke-width="9.31879"/>
<circle r="15.5313" transform="matrix(-1 0 0 1 749.326 782.889)" fill="#6681F7"/>
<circle r="15.5313" transform="matrix(-1 0 0 1 749.326 860.546)" fill="#6681F7"/>
<circle r="15.5313" transform="matrix(4.37114e-08 -1 -1 -4.37114e-08 788.154 821.717)" fill="#65C4A7"/>
<path d="M555.184 899.374L632.841 899.374" stroke="#745BB3" stroke-width="9.31879"/>
<circle cx="555.184" cy="899.374" r="15.5313" transform="rotate(-90 555.184 899.374)" fill="#745BB3"/>
<circle cx="632.841" cy="899.374" r="15.5313" transform="rotate(-90 632.841 899.374)" fill="#745BB3"/>
<path d="M594.012 860.546L671.669 860.546" stroke="#6681F7" stroke-width="9.31879"/>
<circle cx="594.012" cy="860.546" r="15.5313" transform="rotate(-90 594.012 860.546)" fill="#6681F7"/>
<circle cx="671.669" cy="860.546" r="15.5313" transform="rotate(-90 671.669 860.546)" fill="#6681F7"/>
<path d="M671.669 782.889L671.669 860.546" stroke="#6681F7" stroke-width="9.31879"/>
<circle cx="671.669" cy="782.889" r="15.5313" fill="#6681F7"/>
<circle cx="671.669" cy="860.546" r="15.5313" fill="#6681F7"/>
<circle cx="632.841" cy="821.718" r="15.5313" transform="rotate(-90 632.841 821.718)" fill="#65C4A7"/>
<path d="M710.497 744.061L710.497 821.717" stroke="#745BB3" stroke-width="9.31879"/>
<circle cx="710.497" cy="744.061" r="15.5313" fill="#745BB3"/>
<circle cx="710.497" cy="821.717" r="15.5313" fill="#745BB3"/>
<path d="M524.122 169.403V247.059" stroke="#6681F7" stroke-width="9.31879"/>
<circle cx="524.122" cy="169.403" r="15.5313" fill="#6681F7"/>
<circle cx="524.122" cy="247.059" r="15.5313" fill="#6681F7"/>
<path d="M562.95 208.231V285.887" stroke="#6681F7" stroke-width="9.31879"/>
<circle cx="562.95" cy="208.231" r="15.5313" fill="#6681F7"/>
<circle cx="562.95" cy="285.887" r="15.5313" fill="#6681F7"/>
<path d="M640.606 285.887L562.95 285.887" stroke="#6681F7" stroke-width="9.31879"/>
<circle cx="640.606" cy="285.887" r="15.5313" transform="rotate(90 640.606 285.887)" fill="#6681F7"/>
<circle cx="562.95" cy="285.887" r="15.5313" transform="rotate(90 562.95 285.887)" fill="#6681F7"/>
<circle cx="601.778" cy="247.059" r="15.5313" fill="#65C4A7"/>
<path d="M485.293 208.231V285.887" stroke="#6681F7" stroke-width="9.31879"/>
<circle r="15.5313" transform="matrix(-1 0 0 1 485.293 208.231)" fill="#6681F7"/>
<circle r="15.5313" transform="matrix(-1 0 0 1 485.293 285.887)" fill="#6681F7"/>
<path d="M407.637 285.887L485.293 285.887" stroke="#6681F7" stroke-width="9.31879"/>
<circle r="15.5313" transform="matrix(4.37114e-08 1 1 -4.37114e-08 407.637 285.887)" fill="#6681F7"/>
<circle r="15.5313" transform="matrix(4.37114e-08 1 1 -4.37114e-08 485.293 285.887)" fill="#6681F7"/>
<circle r="15.5313" transform="matrix(-1 0 0 1 446.465 247.059)" fill="#65C4A7"/>
<path d="M679.435 324.716L601.778 324.716" stroke="#6681F7" stroke-width="9.31879"/>
<circle cx="679.435" cy="324.716" r="15.5313" transform="rotate(90 679.435 324.716)" fill="#6681F7"/>
<circle cx="601.778" cy="324.716" r="15.5313" transform="rotate(90 601.778 324.716)" fill="#6681F7"/>
<path d="M524.121 480.029L524.121 402.372" stroke="#6681F7" stroke-width="9.31879"/>
<circle cx="524.121" cy="480.029" r="15.5313" transform="rotate(-180 524.121 480.029)" fill="#6681F7"/>
<circle cx="524.121" cy="402.372" r="15.5313" transform="rotate(-180 524.121 402.372)" fill="#6681F7"/>
<path d="M485.293 441.2L485.293 363.544" stroke="#6681F7" stroke-width="9.31879"/>
<circle cx="485.293" cy="441.2" r="15.5313" transform="rotate(-180 485.293 441.2)" fill="#6681F7"/>
<circle cx="485.293" cy="363.544" r="15.5313" transform="rotate(-180 485.293 363.544)" fill="#6681F7"/>
<path d="M407.637 363.544L485.293 363.544" stroke="#6681F7" stroke-width="9.31879"/>
<circle cx="407.637" cy="363.544" r="15.5313" transform="rotate(-90 407.637 363.544)" fill="#6681F7"/>
<circle cx="485.293" cy="363.544" r="15.5313" transform="rotate(-90 485.293 363.544)" fill="#6681F7"/>
<circle cx="446.465" cy="402.372" r="15.5313" transform="rotate(-180 446.465 402.372)" fill="#65C4A7"/>
<path d="M562.95 441.2L562.95 363.544" stroke="#6681F7" stroke-width="9.31879"/>
<circle r="15.5313" transform="matrix(1 -8.74228e-08 -8.74228e-08 -1 562.95 441.2)" fill="#6681F7"/>
<circle r="15.5313" transform="matrix(1 -8.74228e-08 -8.74228e-08 -1 562.95 363.544)" fill="#6681F7"/>
<path d="M640.606 363.544L562.95 363.544" stroke="#6681F7" stroke-width="9.31879"/>
<circle r="15.5313" transform="matrix(-1.31134e-07 -1 -1 1.31134e-07 640.606 363.544)" fill="#6681F7"/>
<circle r="15.5313" transform="matrix(-1.31134e-07 -1 -1 1.31134e-07 562.95 363.544)" fill="#6681F7"/>
<circle r="15.5313" transform="matrix(1 -8.74228e-08 -8.74228e-08 -1 601.778 402.372)" fill="#65C4A7"/>
<path d="M368.808 324.715L446.465 324.715" stroke="#6681F7" stroke-width="9.31879"/>
<circle cx="368.808" cy="324.715" r="15.5313" transform="rotate(-90 368.808 324.715)" fill="#6681F7"/>
<circle cx="446.465" cy="324.715" r="15.5313" transform="rotate(-90 446.465 324.715)" fill="#6681F7"/>
<path d="M943.467 899.374L1021.12 899.374" stroke="#6681F7" stroke-width="9.31879"/>
<circle cx="943.467" cy="899.374" r="15.5313" transform="rotate(-90 943.467 899.374)" fill="#6681F7"/>
<circle cx="1021.12" cy="899.374" r="15.5313" transform="rotate(-90 1021.12 899.374)" fill="#6681F7"/>
<path d="M982.295 860.546L1059.95 860.546" stroke="#6681F7" stroke-width="9.31879"/>
<circle cx="982.295" cy="860.546" r="15.5313" transform="rotate(-90 982.295 860.546)" fill="#6681F7"/>
<circle cx="1021.12" cy="821.718" r="15.5313" transform="rotate(-90 1021.12 821.718)" fill="#65C4A7"/>
<path d="M741.56 317.26L819.216 317.26" stroke="#745BB3" stroke-width="9.31879"/>
<circle cx="741.56" cy="317.26" r="15.5313" transform="rotate(-90 741.56 317.26)" fill="#745BB3"/>
<circle cx="819.216" cy="317.26" r="15.5313" transform="rotate(-90 819.216 317.26)" fill="#745BB3"/>
<path d="M780.388 278.432L858.045 278.432" stroke="#6681F7" stroke-width="9.31879"/>
<circle cx="780.388" cy="278.432" r="15.5313" transform="rotate(-90 780.388 278.432)" fill="#6681F7"/>
<circle cx="858.045" cy="278.432" r="15.5313" transform="rotate(-90 858.045 278.432)" fill="#6681F7"/>
<path d="M858.045 200.776L858.045 278.432" stroke="#6681F7" stroke-width="9.31879"/>
<circle cx="858.045" cy="200.776" r="15.5313" fill="#6681F7"/>
<circle cx="858.045" cy="278.432" r="15.5313" fill="#6681F7"/>
<circle cx="819.216" cy="239.604" r="15.5313" transform="rotate(-90 819.216 239.604)" fill="#65C4A7"/>
<path d="M780.388 356.089L858.045 356.089" stroke="#6681F7" stroke-width="9.31879"/>
<circle r="15.5313" transform="matrix(-1.31134e-07 1 1 1.31134e-07 780.388 356.089)" fill="#6681F7"/>
<circle r="15.5313" transform="matrix(-1.31134e-07 1 1 1.31134e-07 858.045 356.089)" fill="#6681F7"/>
<path d="M858.045 433.745L858.045 356.089" stroke="#6681F7" stroke-width="9.31879"/>
<circle r="15.5313" transform="matrix(1 8.74228e-08 8.74228e-08 -1 858.045 433.745)" fill="#6681F7"/>
<circle r="15.5313" transform="matrix(1 8.74228e-08 8.74228e-08 -1 858.045 356.089)" fill="#6681F7"/>
<circle r="15.5313" transform="matrix(-1.31134e-07 1 1 1.31134e-07 819.216 394.917)" fill="#65C4A7"/>
<path d="M896.873 161.947L896.873 239.604" stroke="#745BB3" stroke-width="9.31879"/>
<circle cx="896.873" cy="161.947" r="15.5313" fill="#745BB3"/>
<circle cx="896.873" cy="239.604" r="15.5313" fill="#745BB3"/>
<path d="M1052.19 317.261L974.53 317.261" stroke="#745BB3" stroke-width="9.31879"/>
<circle cx="1052.19" cy="317.261" r="15.5313" transform="rotate(90 1052.19 317.261)" fill="#745BB3"/>
<circle cx="974.53" cy="317.261" r="15.5313" transform="rotate(90 974.53 317.261)" fill="#745BB3"/>
<path d="M1013.36 356.089L935.702 356.089" stroke="#6681F7" stroke-width="9.31879"/>
<circle cx="1013.36" cy="356.089" r="15.5313" transform="rotate(90 1013.36 356.089)" fill="#6681F7"/>
<circle cx="935.702" cy="356.089" r="15.5313" transform="rotate(90 935.702 356.089)" fill="#6681F7"/>
<path d="M935.702 433.745L935.702 356.089" stroke="#6681F7" stroke-width="9.31879"/>
<circle cx="935.702" cy="433.745" r="15.5313" transform="rotate(-180 935.702 433.745)" fill="#6681F7"/>
<circle cx="935.702" cy="356.089" r="15.5313" transform="rotate(-180 935.702 356.089)" fill="#6681F7"/>
<circle cx="974.53" cy="394.917" r="15.5313" transform="rotate(90 974.53 394.917)" fill="#65C4A7"/>
<path d="M1013.36 278.432L935.702 278.432" stroke="#6681F7" stroke-width="9.31879"/>
<circle r="15.5313" transform="matrix(4.37114e-08 -1 -1 -4.37114e-08 1013.36 278.432)" fill="#6681F7"/>
<circle r="15.5313" transform="matrix(4.37114e-08 -1 -1 -4.37114e-08 935.702 278.432)" fill="#6681F7"/>
<path d="M935.702 200.776L935.702 278.432" stroke="#6681F7" stroke-width="9.31879"/>
<circle r="15.5313" transform="matrix(-1 0 0 1 935.702 200.776)" fill="#6681F7"/>
<circle r="15.5313" transform="matrix(-1 0 0 1 935.702 278.432)" fill="#6681F7"/>
<circle r="15.5313" transform="matrix(4.37114e-08 -1 -1 -4.37114e-08 974.53 239.604)" fill="#65C4A7"/>
<path d="M896.873 472.574L896.873 394.917" stroke="#745BB3" stroke-width="9.31879"/>
<circle cx="896.873" cy="472.574" r="15.5313" transform="rotate(-180 896.873 472.574)" fill="#745BB3"/>
<circle cx="896.873" cy="394.917" r="15.5313" transform="rotate(-180 896.873 394.917)" fill="#745BB3"/>
<path d="M935.701 130.885L1013.36 130.885" stroke="#745BB3" stroke-width="9.31879"/>
<circle cx="935.701" cy="130.885" r="15.5313" transform="rotate(-90 935.701 130.885)" fill="#745BB3"/>
<circle cx="1013.36" cy="130.885" r="15.5313" transform="rotate(-90 1013.36 130.885)" fill="#745BB3"/>
<path d="M974.529 92.0566L1052.19 92.0566" stroke="#6681F7" stroke-width="9.31879"/>
<circle cx="974.529" cy="92.0566" r="15.5313" transform="rotate(-90 974.529 92.0566)" fill="#6681F7"/>
<circle cx="1052.19" cy="92.0566" r="15.5313" transform="rotate(-90 1052.19 92.0566)" fill="#6681F7"/>
<circle cx="1052.19" cy="14.4" r="15.5313" fill="#6681F7"/>
<circle cx="1052.19" cy="92.0566" r="15.5313" fill="#6681F7"/>
<circle cx="1013.36" cy="53.2283" r="15.5313" transform="rotate(-90 1013.36 53.2283)" fill="#65C4A7"/>
<path d="M974.529 169.713L1052.19 169.713" stroke="#6681F7" stroke-width="9.31879"/>
<circle r="15.5313" transform="matrix(-1.31134e-07 1 1 1.31134e-07 974.529 169.713)" fill="#6681F7"/>
<circle r="15.5313" transform="matrix(-1.31134e-07 1 1 1.31134e-07 1052.19 169.713)" fill="#6681F7"/>
<circle r="15.5313" transform="matrix(1 8.74228e-08 8.74228e-08 -1 1052.19 247.37)" fill="#6681F7"/>
<circle r="15.5313" transform="matrix(1 8.74228e-08 8.74228e-08 -1 1052.19 169.713)" fill="#6681F7"/>
<circle r="15.5313" transform="matrix(-1.31134e-07 1 1 1.31134e-07 1013.36 208.541)" fill="#65C4A7"/>
<path d="M547.418 130.885L625.074 130.885" stroke="#6681F7" stroke-width="9.31879"/>
<circle cx="547.418" cy="130.885" r="15.5313" transform="rotate(-90 547.418 130.885)" fill="#6681F7"/>
<circle cx="625.074" cy="130.885" r="15.5313" transform="rotate(-90 625.074 130.885)" fill="#6681F7"/>
<path d="M586.246 92.0565L663.903 92.0565" stroke="#6681F7" stroke-width="9.31879"/>
<circle cx="586.246" cy="92.0565" r="15.5313" transform="rotate(-90 586.246 92.0565)" fill="#6681F7"/>
<circle cx="663.903" cy="92.0565" r="15.5313" transform="rotate(-90 663.903 92.0565)" fill="#6681F7"/>
<path d="M663.903 14.4L663.903 92.0566" stroke="#6681F7" stroke-width="9.31879"/>
<circle cx="663.903" cy="14.4" r="15.5313" fill="#6681F7"/>
<circle cx="663.903" cy="92.0565" r="15.5313" fill="#6681F7"/>
<circle cx="625.074" cy="53.2282" r="15.5313" transform="rotate(-90 625.074 53.2282)" fill="#65C4A7"/>
<path d="M586.246 169.713L663.903 169.713" stroke="#6681F7" stroke-width="9.31879"/>
<circle r="15.5313" transform="matrix(-1.31134e-07 1 1 1.31134e-07 586.246 169.713)" fill="#6681F7"/>
<circle r="15.5313" transform="matrix(-1.31134e-07 1 1 1.31134e-07 663.903 169.713)" fill="#6681F7"/>
<path d="M663.903 247.37L663.903 169.713" stroke="#6681F7" stroke-width="9.31879"/>
<circle r="15.5313" transform="matrix(1 8.74228e-08 8.74228e-08 -1 663.903 247.37)" fill="#6681F7"/>
<circle r="15.5313" transform="matrix(1 8.74228e-08 8.74228e-08 -1 663.903 169.713)" fill="#6681F7"/>
<circle r="15.5313" transform="matrix(-1.31134e-07 1 1 1.31134e-07 625.074 208.541)" fill="#65C4A7"/>
<path d="M702.731 -24.4285L702.731 53.2281" stroke="#6681F7" stroke-width="9.31879"/>
<circle cx="702.731" cy="53.2281" r="15.5313" fill="#6681F7"/>
<path d="M858.044 130.885L780.388 130.885" stroke="#6681F7" stroke-width="9.31879"/>
<circle cx="858.044" cy="130.885" r="15.5313" transform="rotate(90 858.044 130.885)" fill="#6681F7"/>
<circle cx="780.388" cy="130.885" r="15.5313" transform="rotate(90 780.388 130.885)" fill="#6681F7"/>
<path d="M819.216 169.713L741.56 169.713" stroke="#6681F7" stroke-width="9.31879"/>
<circle cx="819.216" cy="169.713" r="15.5313" transform="rotate(90 819.216 169.713)" fill="#6681F7"/>
<circle cx="741.56" cy="169.713" r="15.5313" transform="rotate(90 741.56 169.713)" fill="#6681F7"/>
<path d="M741.56 247.37L741.56 169.713" stroke="#6681F7" stroke-width="9.31879"/>
<circle cx="741.56" cy="247.37" r="15.5313" transform="rotate(-180 741.56 247.37)" fill="#6681F7"/>
<circle cx="741.56" cy="169.713" r="15.5313" transform="rotate(-180 741.56 169.713)" fill="#6681F7"/>
<circle cx="780.388" cy="208.541" r="15.5313" transform="rotate(90 780.388 208.541)" fill="#65C4A7"/>
<path d="M819.216 92.0566L741.56 92.0566" stroke="#6681F7" stroke-width="9.31879"/>
<circle r="15.5313" transform="matrix(4.37114e-08 -1 -1 -4.37114e-08 819.216 92.0566)" fill="#6681F7"/>
<circle r="15.5313" transform="matrix(4.37114e-08 -1 -1 -4.37114e-08 741.56 92.0566)" fill="#6681F7"/>
<path d="M741.56 14.4L741.56 92.0566" stroke="#6681F7" stroke-width="9.31879"/>
<circle r="15.5313" transform="matrix(-1 0 0 1 741.56 14.4001)" fill="#6681F7"/>
<circle r="15.5313" transform="matrix(-1 0 0 1 741.56 92.0566)" fill="#6681F7"/>
<circle r="15.5313" transform="matrix(4.37114e-08 -1 -1 -4.37114e-08 780.388 53.2283)" fill="#65C4A7"/>
<path d="M702.731 286.198L702.731 208.541" stroke="#6681F7" stroke-width="9.31879"/>
<circle cx="702.731" cy="286.198" r="15.5313" transform="rotate(-180 702.731 286.198)" fill="#6681F7"/>
<circle cx="702.731" cy="208.541" r="15.5313" transform="rotate(-180 702.731 208.541)" fill="#6681F7"/>
<path d="M555.184 518.857L632.841 518.857" stroke="#745BB3" stroke-width="9.31879"/>
<circle cx="555.184" cy="518.857" r="15.5313" transform="rotate(-90 555.184 518.857)" fill="#745BB3"/>
<circle cx="632.841" cy="518.857" r="15.5313" transform="rotate(-90 632.841 518.857)" fill="#745BB3"/>
<path d="M594.012 480.029L671.669 480.029" stroke="#6681F7" stroke-width="9.31879"/>
<circle cx="594.012" cy="480.029" r="15.5313" transform="rotate(-90 594.012 480.029)" fill="#6681F7"/>
<circle cx="671.669" cy="480.029" r="15.5313" transform="rotate(-90 671.669 480.029)" fill="#6681F7"/>
<path d="M671.669 402.372V480.029" stroke="#6681F7" stroke-width="9.31879"/>
<circle cx="671.669" cy="402.372" r="15.5313" fill="#6681F7"/>
<circle cx="671.669" cy="480.029" r="15.5313" fill="#6681F7"/>
<path d="M594.012 557.685L671.669 557.685" stroke="#6681F7" stroke-width="9.31879"/>
<circle r="15.5313" transform="matrix(4.37114e-08 1 1 -4.37114e-08 594.012 557.685)" fill="#6681F7"/>
<circle r="15.5313" transform="matrix(4.37114e-08 1 1 -4.37114e-08 671.669 557.685)" fill="#6681F7"/>
<path d="M671.669 635.342L671.669 557.685" stroke="#6681F7" stroke-width="9.31879"/>
<circle r="15.5313" transform="matrix(1 -8.74228e-08 -8.74228e-08 -1 671.669 635.342)" fill="#6681F7"/>
<circle r="15.5313" transform="matrix(1 -8.74228e-08 -8.74228e-08 -1 671.669 557.685)" fill="#6681F7"/>
<path d="M710.497 363.544V441.2" stroke="#745BB3" stroke-width="9.31879"/>
<circle cx="710.497" cy="363.544" r="15.5313" fill="#745BB3"/>
<circle cx="710.497" cy="441.2" r="15.5313" fill="#745BB3"/>
<path d="M865.811 518.857L788.154 518.857" stroke="#745BB3" stroke-width="9.31879"/>
<circle cx="865.811" cy="518.857" r="15.5313" transform="rotate(90 865.811 518.857)" fill="#745BB3"/>
<circle cx="788.154" cy="518.857" r="15.5313" transform="rotate(90 788.154 518.857)" fill="#745BB3"/>
<path d="M826.982 557.685L749.326 557.685" stroke="#6681F7" stroke-width="9.31879"/>
<circle cx="826.982" cy="557.685" r="15.5313" transform="rotate(90 826.982 557.685)" fill="#6681F7"/>
<circle cx="749.326" cy="557.685" r="15.5313" transform="rotate(90 749.326 557.685)" fill="#6681F7"/>
<path d="M749.326 635.342L749.326 557.685" stroke="#6681F7" stroke-width="9.31879"/>
<circle cx="749.326" cy="635.342" r="15.5313" transform="rotate(-180 749.326 635.342)" fill="#6681F7"/>
<circle cx="749.326" cy="557.685" r="15.5313" transform="rotate(-180 749.326 557.685)" fill="#6681F7"/>
<path d="M826.982 480.029L749.326 480.029" stroke="#6681F7" stroke-width="9.31879"/>
<circle r="15.5313" transform="matrix(-1.31134e-07 -1 -1 1.31134e-07 826.982 480.029)" fill="#6681F7"/>
<circle r="15.5313" transform="matrix(-1.31134e-07 -1 -1 1.31134e-07 749.326 480.029)" fill="#6681F7"/>
<path d="M749.326 402.372L749.326 480.029" stroke="#6681F7" stroke-width="9.31879"/>
<circle r="15.5313" transform="matrix(-1 1.74846e-07 1.74846e-07 1 749.326 402.372)" fill="#6681F7"/>
<circle r="15.5313" transform="matrix(-1 1.74846e-07 1.74846e-07 1 749.326 480.029)" fill="#6681F7"/>
<path d="M710.498 674.17L710.498 596.514" stroke="#745BB3" stroke-width="9.31879"/>
<circle cx="710.498" cy="674.17" r="15.5313" transform="rotate(-180 710.498 674.17)" fill="#745BB3"/>
<circle cx="710.498" cy="596.514" r="15.5313" transform="rotate(-180 710.498 596.514)" fill="#745BB3"/>
<path d="M672.29 557.996L750.568 479.718" stroke="#6681F7" stroke-width="9.31879"/>
<path d="M935.701 511.402L1013.36 511.402" stroke="#745BB3" stroke-width="9.31879"/>
<circle cx="935.701" cy="511.402" r="15.5313" transform="rotate(-90 935.701 511.402)" fill="#745BB3"/>
<circle cx="1013.36" cy="511.402" r="15.5313" transform="rotate(-90 1013.36 511.402)" fill="#745BB3"/>
<path d="M974.53 472.574L1052.19 472.574" stroke="#6681F7" stroke-width="9.31879"/>
<circle cx="974.53" cy="472.574" r="15.5313" transform="rotate(-90 974.53 472.574)" fill="#6681F7"/>
<circle cx="1052.19" cy="472.574" r="15.5313" transform="rotate(-90 1052.19 472.574)" fill="#6681F7"/>
<circle cx="1052.19" cy="394.917" r="15.5313" fill="#6681F7"/>
<circle cx="1052.19" cy="472.574" r="15.5313" fill="#6681F7"/>
<path d="M974.53 550.23L1052.19 550.23" stroke="#6681F7" stroke-width="9.31879"/>
<circle r="15.5313" transform="matrix(4.37114e-08 1 1 -4.37114e-08 974.53 550.23)" fill="#6681F7"/>
<circle r="15.5313" transform="matrix(4.37114e-08 1 1 -4.37114e-08 1052.19 550.23)" fill="#6681F7"/>
<circle r="15.5313" transform="matrix(1 -8.74228e-08 -8.74228e-08 -1 1052.19 627.887)" fill="#6681F7"/>
<circle r="15.5313" transform="matrix(1 -8.74228e-08 -8.74228e-08 -1 1052.19 550.23)" fill="#6681F7"/>
<path d="M896.873 99.8221L896.873 22.1656" stroke="#745BB3" stroke-width="9.31879"/>
<circle cx="896.873" cy="99.8221" r="15.5313" transform="rotate(-180 896.873 99.8221)" fill="#745BB3"/>
<circle cx="896.873" cy="22.1656" r="15.5313" transform="rotate(-180 896.873 22.1656)" fill="#745BB3"/>
<path d="M858.045 60.9939L858.045 -16.6627" stroke="#6681F7" stroke-width="9.31879"/>
<circle cx="858.045" cy="60.9938" r="15.5313" transform="rotate(-180 858.045 60.9938)" fill="#6681F7"/>
<path d="M935.701 60.994L935.701 -16.6625" stroke="#6681F7" stroke-width="9.31879"/>
<circle r="15.5313" transform="matrix(1 8.74228e-08 8.74228e-08 -1 935.701 60.994)" fill="#6681F7"/>
</svg>
